<?xml version="1.0" encoding="UTF-8"?>
<svg width="42px" height="42px" viewBox="0 0 42 42" version="1.1" xmlns="http://www.w3.org/2000/svg" xmlns:xlink="http://www.w3.org/1999/xlink">
    <!-- Generator: Sketch 54.1 (76490) - https://sketchapp.com -->
    <title>Icon_Amount</title>
    <desc>Created with Sketch.</desc>
    <g id="Page-1" stroke="none" stroke-width="1" fill="none" fill-rule="evenodd">
        <g id="Icon_Amount" fill="#1D9CEB" stroke="#FFFFFF" stroke-width="0.916666667">
            <path d="M10.4583333,22.625 L10.4583333,26.7083333 L14.375,26.7083333 L14.375,31.5416667 L18.4583333,31.5416667 L18.4583333,26.7083333 L23.5416667,26.7083333 L23.5416667,31.5416667 L27.625,31.5416667 L27.625,26.7083333 L31.5416667,26.7083333 L31.5416667,22.625 L27.625,22.625 L27.625,19.375 L31.5416667,19.375 L31.5416667,15.2916667 L27.625,15.2916667 L27.625,10.4583333 L23.5416667,10.4583333 L23.5416667,15.2916667 L18.4583333,15.2916667 L18.4583333,10.4583333 L14.375,10.4583333 L14.375,15.2916667 L10.4583333,15.2916667 L10.4583333,19.375 L14.375,19.375 L14.375,22.625 L10.4583333,22.625 Z M18.4583333,22.625 L18.4583333,19.375 L23.5416667,19.375 L23.5416667,22.625 L18.4583333,22.625 Z" id="Combined-Shape"></path>
        </g>
    </g>
</svg>